#define rightHandle_width 16
#define rightHandle_height 16
static unsigned char rightHandle_bits[] = {
   0xff, 0x01, 0x00, 0x06, 0x00, 0x08, 0x00, 0x10, 0x00, 0x20, 0x00, 0x40,
   0x00, 0x40, 0x00, 0x40, 0x00, 0x40, 0x00, 0x00, 0x00, 0x00, 0x00, 0x00,
   0x00, 0x00, 0x00, 0x00, 0x00, 0x00, 0x00, 0x00 };
